<svg id="Layer_1" data-name="Layer 1" xmlns="http://www.w3.org/2000/svg" xmlns:xlink="http://www.w3.org/1999/xlink" viewBox="0 0 361.77 114.23"><defs><style>.cls-1{font-size:42.12px;letter-spacing:-0.04em;}.cls-1,.cls-4{font-family:QuantumRegular, Quantum;}.cls-2{letter-spacing:0em;}.cls-3{fill:url(#linear-gradient);}.cls-4{font-size:31.48px;fill:#702632;}</style><linearGradient id="linear-gradient" x1="28.85" y1="49.66" x2="57.83" y2="49.66" gradientUnits="userSpaceOnUse"><stop offset="0" stop-color="#40434e"/><stop offset="1" stop-color="#702632"/></linearGradient></defs><text x="-22.23" y="15.88"/><text x="-22.23" y="15.88"/><text class="cls-1" transform="translate(35.52 114.23) rotate(-89.95)">W<tspan class="cls-2" x="39.67" y="0">EB</tspan></text><path class="cls-3" d="M39.27,74l18.5,8.78L29.36,96.22V88.34l12.92-6.13-9.17-4.36L32,77.32l1.94-.9ZM29.39,59.08l20.24,9.64,8.15,3.87-1.28.61-7,3.31h0l-.08,0L42.05,73h0l-.83-.4L29.38,67Z" transform="translate(-22.23 15.88)"/><path class="cls-3" d="M46.94,47.82l-8.75,8.73H28.85l0-24.15H36L36,48.6l3.76-3.74V32.4H47ZM50.65,32.4l7.16,0,0,24.15-16.36,0,7.17-7.16h2Z" transform="translate(-22.23 15.88)"/><path class="cls-3" d="M43.36,5.53a8.57,8.57,0,0,1,6-2.43A8.53,8.53,0,0,1,57.8,11c0,.22,0,.45,0,.68V28.18H44.12L51.29,21h.3V13.24a2.21,2.21,0,0,0-4.41,0V21H48l-7.17,7.16h-12V11.6A8.51,8.51,0,0,1,43.36,5.53ZM37.88,21l1.92-1.92V13.23a2.21,2.21,0,0,0-4.41,0V21Z" transform="translate(-22.23 15.88)"/><text class="cls-4" transform="translate(44.77 77.67)">COURSE REVIEWS</text></svg>